<svg xmlns="http://www.w3.org/2000/svg" viewBox="0 0 548 120" width="548" height="120" role="img" aria-label="PikaCart"><title>PikaCart</title>
  <defs>
    <linearGradient id="pkBadge" x1="0" y1="0" x2="1" y2="1">
      <stop offset="0" stop-color="#8B5CF6"/>
      <stop offset="0.55" stop-color="#5B4BFF"/>
      <stop offset="1" stop-color="#3F2BE0"/>
    </linearGradient>
    <linearGradient id="pkBolt" x1="0" y1="0" x2="0" y2="1">
      <stop offset="0" stop-color="#FFC83D"/>
      <stop offset="1" stop-color="#FF9F1C"/>
    </linearGradient>
  </defs>
  <g transform="translate(0,0) scale(0.234375)">
    <rect x="0" y="0" width="512" height="512" rx="120" fill="url(#pkBadge)"/><rect x="6" y="6" width="500" height="500" rx="114" fill="none" stroke="#FFFFFF" stroke-opacity="0.55" stroke-width="12"/>
    <path d="M0 150 Q 0 0 150 0 L 360 0 Q 512 0 512 150 L 512 200 Q 300 130 0 250 Z" fill="#FFFFFF" opacity="0.10"/>
    <path d="M196 196 V168 a60 60 0 0 1 120 0 V196" fill="none" stroke="#FFFFFF" stroke-width="30" stroke-linecap="round"/>
    <path d="M138 196 H374 a18 18 0 0 1 18 17 L404 388 a36 36 0 0 1 -36 38 H144 a36 36 0 0 1 -36 -38 L120 213 a18 18 0 0 1 18 -17 Z" fill="#FFFFFF"/>
    <path d="M284 212 L192 332 H246 L226 410 L324 280 H268 Z" fill="url(#pkBolt)" stroke="#3F2BE0" stroke-width="8" stroke-linejoin="round"/>
    <circle cx="400" cy="112" r="16" fill="#FFC83D"/>
    <circle cx="436" cy="152" r="8" fill="#FFC83D" opacity="0.8"/>
  </g>
  <path d="M178.712 61.056H170.176V82.0H152.928V19.96H178.712Q186.192 19.96 191.428 22.6Q196.664 25.240000000000002 199.30399999999997 29.904000000000003Q201.944 34.568000000000005 201.944 40.64Q201.944 46.272000000000006 199.348 50.892Q196.752 55.512 191.51600000000002 58.284Q186.28 61.056 178.712 61.056ZM184.344 40.64Q184.344 33.864000000000004 177.04 33.864000000000004H170.176V47.328H177.04Q184.344 47.328 184.344 40.64Z M205.728 19.256Q205.728 15.384 208.5 12.832Q211.272 10.280000000000001 215.84799999999998 10.280000000000001Q220.336 10.280000000000001 223.108 12.832Q225.88 15.384 225.88 19.256Q225.88 23.040000000000006 223.108 25.548000000000005Q220.336 28.056000000000004 215.84799999999998 28.056000000000004Q211.272 28.056000000000004 208.5 25.548000000000005Q205.728 23.040000000000006 205.728 19.256ZM224.384 32.632000000000005V82.0H207.136V32.632000000000005Z M263.368 82.0 249.72799999999998 61.760000000000005V82.0H232.48V16.88000000000001H249.72799999999998V51.992000000000004L263.368 32.632000000000005H284.048L264.59999999999997 57.448L284.4 82.0Z M305.872 32.016000000000005Q310.976 32.016000000000005 314.672 34.040000000000006Q318.368 36.064 320.392 39.496V32.632000000000005H337.64V82.0H320.392V75.136Q318.368 78.568 314.62800000000004 80.592Q310.88800000000003 82.616 305.872 82.616Q299.976 82.616 295.18 79.536Q290.384 76.456 287.612 70.69200000000001Q284.84000000000003 64.928 284.84000000000003 57.272000000000006Q284.84000000000003 49.616 287.612 43.896Q290.384 38.176 295.18 35.096000000000004Q299.976 32.016000000000005 305.872 32.016000000000005ZM311.416 47.064Q307.544 47.064 304.99199999999996 49.748000000000005Q302.44 52.432 302.44 57.272000000000006Q302.44 62.024 304.99199999999996 64.79599999999999Q307.544 67.568 311.416 67.568Q315.2 67.568 317.796 64.84Q320.392 62.112 320.392 57.272000000000006Q320.392 52.52 317.796 49.792Q315.2 47.064 311.416 47.064Z" fill="#FFFFFF"/>
  <path d="M376.272 19.344Q387.888 19.344 395.808 25.548000000000002Q403.72799999999995 31.752000000000002 406.01599999999996 42.400000000000006H387.448Q385.77599999999995 38.88 382.828 37.032000000000004Q379.88 35.184000000000005 376.008 35.184000000000005Q370.024 35.184000000000005 366.46 39.452Q362.89599999999996 43.72 362.89599999999996 50.848Q362.89599999999996 58.064 366.46 62.331999999999994Q370.024 66.6 376.008 66.6Q379.88 66.6 382.828 64.752Q385.77599999999995 62.903999999999996 387.448 59.384H406.01599999999996Q403.72799999999995 70.032 395.808 76.23599999999999Q387.888 82.44 376.272 82.44Q367.12 82.44 360.08 78.436Q353.03999999999996 74.432 349.212 67.26Q345.38399999999996 60.088 345.38399999999996 50.848Q345.38399999999996 41.696000000000005 349.212 34.524Q353.03999999999996 27.352000000000004 360.08 23.348000000000003Q367.12 19.344 376.272 19.344Z M430.65599999999995 32.016000000000005Q435.75999999999993 32.016000000000005 439.4559999999999 34.040000000000006Q443.15199999999993 36.064 445.17599999999993 39.496V32.632000000000005H462.4239999999999V82.0H445.17599999999993V75.136Q443.15199999999993 78.568 439.4119999999999 80.592Q435.6719999999999 82.616 430.65599999999995 82.616Q424.75999999999993 82.616 419.96399999999994 79.536Q415.16799999999995 76.456 412.39599999999996 70.69200000000001Q409.62399999999997 64.928 409.62399999999997 57.272000000000006Q409.62399999999997 49.616 412.39599999999996 43.896Q415.16799999999995 38.176 419.96399999999994 35.096000000000004Q424.75999999999993 32.016000000000005 430.65599999999995 32.016000000000005ZM436.19999999999993 47.064Q432.3279999999999 47.064 429.77599999999995 49.748000000000005Q427.22399999999993 52.432 427.22399999999993 57.272000000000006Q427.22399999999993 62.024 429.77599999999995 64.79599999999999Q432.3279999999999 67.568 436.19999999999993 67.568Q439.9839999999999 67.568 442.5799999999999 64.84Q445.17599999999993 62.112 445.17599999999993 57.272000000000006Q445.17599999999993 52.52 442.5799999999999 49.792Q439.9839999999999 47.064 436.19999999999993 47.064Z M503.6959999999999 32.192V50.584H498.85599999999994Q493.22399999999993 50.584 490.4959999999999 52.784000000000006Q487.7679999999999 54.984 487.7679999999999 60.44V82.0H470.5199999999999V32.632000000000005H487.7679999999999V41.344Q490.6719999999999 37.120000000000005 494.8079999999999 34.656000000000006Q498.9439999999999 32.192 503.6959999999999 32.192Z M537.2239999999999 67.304V82.0H529.7439999999999Q510.82399999999996 82.0 510.82399999999996 63.256V46.976H504.75199999999995V32.632000000000005H510.82399999999996V20.664H528.16V32.632000000000005H537.136V46.976H528.16V63.519999999999996Q528.16 65.544 529.084 66.424Q530.0079999999999 67.304 532.208 67.304Z" fill="#A99CFF"/>
  <path d="M162.577 108.084Q162.577 109.869 161.80349999999999 111.20349999999999Q161.03 112.538 159.6105 113.269Q158.191 114.0 156.321 114.0H152.173V102.134H156.321Q158.191 102.134 159.6105 102.86500000000001Q161.03 103.596 161.80349999999999 104.9475Q162.577 106.299 162.577 108.084ZM160.14600000000002 108.084Q160.14600000000002 106.231 159.126 105.18549999999999Q158.106 104.14 156.236 104.14H154.553V111.977H156.236Q158.106 111.977 159.126 110.957Q160.14600000000002 109.937 160.14600000000002 108.084Z M169.802 102.134V114.0H167.422V102.134Z M183.47 105.704Q183.062 104.956 182.348 104.565Q181.634 104.174 180.682 104.174Q179.628 104.174 178.812 104.65Q177.996 105.126 177.537 106.01Q177.078 106.894 177.078 108.05Q177.078 109.24 177.5455 110.124Q178.013 111.008 178.846 111.484Q179.679 111.96 180.784 111.96Q182.144 111.96 183.011 111.2375Q183.878 110.515 184.15 109.223H180.07V107.404H186.496V109.478Q186.258 110.719 185.476 111.773Q184.694 112.827 183.4615 113.4645Q182.22899999999998 114.102 180.69899999999998 114.102Q178.982 114.102 177.5965 113.3285Q176.21099999999998 112.555 175.4205 111.178Q174.63 109.801 174.63 108.05Q174.63 106.299 175.4205 104.9135Q176.21099999999998 103.52799999999999 177.5965 102.7545Q178.982 101.981 180.682 101.981Q182.688 101.981 184.16699999999997 102.9585Q185.646 103.936 186.207 105.704Z M193.704 102.134V114.0H191.324V102.134Z M207.185 102.134V104.055H204.02300000000002V114.0H201.643V104.055H198.48100000000002V102.134Z M219.25500000000002 111.739H214.52900000000002L213.747 114.0H211.24800000000002L215.51500000000001 102.117H218.286L222.55300000000003 114.0H220.037ZM218.609 109.835 216.89200000000002 104.871 215.175 109.835Z M229.591 112.113H233.501V114.0H227.211V102.134H229.591Z  M258.117 102.134V114.0H255.737V106.282L252.558 114.0H250.756L247.56 106.282V114.0H245.18V102.134H247.883L251.657 110.957L255.431 102.134Z M270.79900000000004 111.739H266.07300000000004L265.291 114.0H262.79200000000003L267.059 102.117H269.83000000000004L274.09700000000004 114.0H271.581ZM270.153 109.835 268.43600000000004 104.871 266.71900000000005 109.835Z M284.87500000000006 114.0 282.25700000000006 109.376H281.13500000000005V114.0H278.75500000000005V102.134H283.20900000000006Q284.58600000000007 102.134 285.55500000000006 102.6185Q286.52400000000006 103.103 287.0085 103.9275Q287.49300000000005 104.752 287.49300000000005 105.772Q287.49300000000005 106.945 286.81300000000005 107.8885Q286.13300000000004 108.832 284.7900000000001 109.189L287.6290000000001 114.0ZM281.13500000000005 107.591H283.124Q284.0930000000001 107.591 284.5690000000001 107.1235Q285.0450000000001 106.656 285.0450000000001 105.823Q285.0450000000001 105.007 284.5690000000001 104.5565Q284.0930000000001 104.106 283.124 104.106H281.13500000000005Z M299.41 114.0 295.09200000000004 108.713V114.0H292.71200000000005V102.134H295.09200000000004V107.455L299.41 102.134H302.2830000000001L297.38700000000006 108.016L302.41900000000004 114.0Z M309.42300000000006 104.055V107.03H313.41800000000006V108.917H309.42300000000006V112.062H313.92800000000005V114.0H307.04300000000006V102.117H313.92800000000005V104.055Z M327.22200000000004 102.134V104.055H324.06000000000006V114.0H321.68000000000006V104.055H318.51800000000003V102.134Z M336.38500000000005 109.444H334.3960000000001V114.0H332.0160000000001V102.134H336.38500000000005Q337.76200000000006 102.134 338.7310000000001 102.61Q339.7000000000001 103.086 340.18450000000007 103.919Q340.6690000000001 104.752 340.6690000000001 105.806Q340.6690000000001 106.758 340.21850000000006 107.59100000000001Q339.7680000000001 108.424 338.8075000000001 108.934Q337.8470000000001 109.444 336.38500000000005 109.444ZM338.22100000000006 105.806Q338.22100000000006 104.072 336.2830000000001 104.072H334.3960000000001V107.523H336.2830000000001Q337.26900000000006 107.523 337.74500000000006 107.07249999999999Q338.22100000000006 106.622 338.22100000000006 105.806Z M347.7920000000001 112.113H351.7020000000001V114.0H345.4120000000001V102.134H347.7920000000001Z M363.5510000000001 111.739H358.8250000000001L358.04300000000006 114.0H355.5440000000001L359.8110000000001 102.117H362.5820000000001L366.8490000000001 114.0H364.3330000000001ZM362.9050000000001 109.835 361.1880000000001 104.871 359.4710000000001 109.835Z M376.9470000000001 101.981Q378.9360000000001 101.981 380.43200000000013 103.001Q381.9280000000001 104.021 382.52300000000014 105.823H379.7860000000001Q379.3780000000001 104.973 378.63850000000014 104.548Q377.8990000000001 104.123 376.9300000000001 104.123Q375.89300000000014 104.123 375.08550000000014 104.6075Q374.27800000000013 105.092 373.8275000000001 105.976Q373.3770000000001 106.86 373.3770000000001 108.05Q373.3770000000001 109.223 373.8275000000001 110.1155Q374.27800000000013 111.008 375.08550000000014 111.4925Q375.89300000000014 111.977 376.9300000000001 111.977Q377.8990000000001 111.977 378.63850000000014 111.5435Q379.3780000000001 111.11 379.7860000000001 110.26H382.52300000000014Q381.9280000000001 112.079 380.4405000000001 113.09049999999999Q378.9530000000001 114.102 376.9470000000001 114.102Q375.2470000000001 114.102 373.87850000000014 113.3285Q372.5100000000001 112.555 371.71950000000015 111.178Q370.92900000000014 109.801 370.92900000000014 108.05Q370.92900000000014 106.299 371.71950000000015 104.9135Q372.5100000000001 103.52799999999999 373.87850000000014 102.7545Q375.2470000000001 101.981 376.9470000000001 101.981Z M390.0030000000001 104.055V107.03H393.9980000000001V108.917H390.0030000000001V112.062H394.5080000000001V114.0H387.6230000000001V102.117H394.5080000000001V104.055Z" fill="#C9C9D6"/>
</svg>
