<svg xmlns="http://www.w3.org/2000/svg" viewBox="0 0 512 512" width="512" height="512" role="img" aria-label="PikaCart icon"><title>PikaCart icon</title>
  <defs>
    <linearGradient id="pkBadge" x1="0" y1="0" x2="1" y2="1">
      <stop offset="0" stop-color="#8B5CF6"/>
      <stop offset="0.55" stop-color="#5B4BFF"/>
      <stop offset="1" stop-color="#3F2BE0"/>
    </linearGradient>
    <linearGradient id="pkBolt" x1="0" y1="0" x2="0" y2="1">
      <stop offset="0" stop-color="#FFC83D"/>
      <stop offset="1" stop-color="#FF9F1C"/>
    </linearGradient>
  </defs>
  <g transform="translate(0,0) scale(1.0)">
    <rect x="0" y="0" width="512" height="512" rx="120" fill="url(#pkBadge)"/>
    <path d="M0 150 Q 0 0 150 0 L 360 0 Q 512 0 512 150 L 512 200 Q 300 130 0 250 Z" fill="#FFFFFF" opacity="0.10"/>
    <path d="M196 196 V168 a60 60 0 0 1 120 0 V196" fill="none" stroke="#FFFFFF" stroke-width="30" stroke-linecap="round"/>
    <path d="M138 196 H374 a18 18 0 0 1 18 17 L404 388 a36 36 0 0 1 -36 38 H144 a36 36 0 0 1 -36 -38 L120 213 a18 18 0 0 1 18 -17 Z" fill="#FFFFFF"/>
    <path d="M284 212 L192 332 H246 L226 410 L324 280 H268 Z" fill="url(#pkBolt)" stroke="#3F2BE0" stroke-width="8" stroke-linejoin="round"/>
    <circle cx="400" cy="112" r="16" fill="#FFC83D"/>
    <circle cx="436" cy="152" r="8" fill="#FFC83D" opacity="0.8"/>
  </g>
</svg>
